<svg xmlns="http://www.w3.org/2000/svg" width="400" height="400" viewBox="0 0 400 400" fill="none">
  <!-- Background - Brand color gradient -->
  <rect width="400" height="400" fill="#004631" rx="12"/>

  <!-- Decorative circle pattern -->
  <circle cx="200" cy="200" r="150" fill="none" stroke="#FF6B35" stroke-width="2" opacity="0.3"/>
  <circle cx="200" cy="200" r="100" fill="none" stroke="#FF6B35" stroke-width="2" opacity="0.5"/>
  <circle cx="200" cy="200" r="50" fill="none" stroke="#FF6B35" stroke-width="2" opacity="0.7"/>

  <!-- Leaf icon in center -->
  <g transform="translate(175, 150)">
    <path d="M25 5 C25 5, 5 25, 5 40 C5 55, 20 65, 25 70 C30 65, 45 55, 45 40 C45 25, 25 5, 25 5Z"
          fill="#FF6B35" opacity="0.9"/>
    <path d="M25 10 C25 10, 10 30, 10 42 C10 52, 20 58, 25 62 C30 58, 40 52, 40 42 C40 30, 25 10, 25 10Z"
          fill="#004631"/>
  </g>

  <!-- Text -->
  <text x="200" y="300" text-anchor="middle" font-family="Arial, sans-serif" font-size="18" fill="#FF6B35" font-weight="bold">
    HALDEKİ
  </text>
  <text x="200" y="325" text-anchor="middle" font-family="Arial, sans-serif" font-size="14" fill="white" opacity="0.8">
    Taze Ürün
  </text>
</svg>