<svg width="655" height="159" viewBox="0 0 655 159" fill="none" xmlns="http://www.w3.org/2000/svg">
<path d="M261.687 84.2514C260.429 83.9518 258.602 83.5923 256.205 83.173C253.809 82.6937 250.694 82.4541 246.859 82.4541C242.126 82.4541 238.172 83.4725 234.997 85.5095C231.822 87.5464 229.276 90.2723 227.359 93.6872C225.501 97.102 224.154 100.996 223.315 105.37C222.536 109.743 222.147 114.266 222.147 118.939C222.147 121.575 222.386 123.972 222.865 126.128C223.405 128.285 224.124 130.142 225.022 131.7C225.921 133.258 226.969 134.486 228.167 135.384C229.366 136.223 230.654 136.643 232.032 136.643C234.248 136.643 236.525 135.744 238.861 133.947C241.198 132.089 243.445 129.723 245.601 126.847C247.818 123.972 249.885 120.766 251.802 117.232C253.779 113.697 255.486 110.222 256.924 106.807C258.422 103.333 259.59 100.127 260.429 97.1919C261.268 94.2563 261.687 91.9198 261.687 90.1824V84.2514ZM269.326 155.784C268.667 154.705 268.038 153.058 267.438 150.841C266.839 148.565 266.3 146.138 265.821 143.562C265.401 140.926 265.042 138.35 264.742 135.834C264.503 133.258 264.383 131.131 264.383 129.453V124.331C262.466 128.225 260.159 132.179 257.463 136.193C254.827 140.147 251.802 143.742 248.387 146.977C244.972 150.212 241.198 152.878 237.064 154.975C232.99 157.012 228.617 158.03 223.944 158.03C220.17 158.03 216.635 157.192 213.34 155.514C210.045 153.837 207.169 151.35 204.713 148.055C202.316 144.76 200.429 140.686 199.051 135.834C197.673 130.921 196.984 125.29 196.984 118.939C196.984 111.81 198.033 104.86 200.13 98.0905C202.226 91.2608 205.462 85.2099 209.835 79.9378C214.208 74.6059 219.78 70.3523 226.55 67.177C233.32 63.9419 241.348 62.3243 250.634 62.3243C257.164 62.3243 263.634 62.7137 270.045 63.4926C276.455 64.2115 282.236 65.17 287.388 66.3682V108.155C287.388 119.478 287.928 129.004 289.006 136.732C290.084 144.401 291.492 150.751 293.23 155.784H269.326Z" fill="#004631"/>
<path d="M329.323 113.098C329.323 115.974 329.353 119.359 329.413 123.253C329.533 127.147 329.652 131.101 329.772 135.115C329.952 139.129 330.132 142.963 330.311 146.618C330.551 150.272 330.821 153.327 331.12 155.784H304.161V54.2365C304.161 45.4896 304.011 37.5815 303.711 30.5122C303.412 23.3829 302.963 17.2122 302.364 12H329.323V113.098Z" fill="#004631"/>
<path d="M407.653 89.4635C405.556 88.445 403.609 87.6063 401.812 86.9473C400.074 86.2284 398.337 85.6592 396.599 85.2399C394.922 84.7606 393.185 84.4311 391.387 84.2514C389.65 84.0117 387.733 83.8919 385.636 83.8919C383.299 83.8919 380.993 84.5209 378.716 85.7791C376.44 87.0372 374.403 88.8644 372.605 91.2608C370.868 93.6572 369.46 96.5928 368.382 100.068C367.303 103.482 366.764 107.377 366.764 111.75C366.764 120.317 368.172 126.817 370.988 131.251C373.804 135.624 378.087 137.811 383.839 137.811C386.235 137.811 388.601 137.302 390.938 136.283C393.334 135.265 395.581 133.917 397.678 132.239C399.775 130.502 401.692 128.585 403.429 126.488C405.167 124.331 406.574 122.114 407.653 119.838V89.4635ZM432.815 108.155C432.815 119.478 433.444 129.004 434.702 136.732C436.02 144.401 437.638 150.751 439.555 155.784H414.842C414.483 155.065 414.093 154.136 413.674 152.998C413.314 151.86 412.895 150.602 412.416 149.224C411.996 147.846 411.547 146.378 411.068 144.82C410.648 143.203 410.259 141.615 409.899 140.057C405.826 145.869 401.212 150.332 396.06 153.447C390.908 156.503 385.187 158.03 378.896 158.03C373.324 158.03 368.262 157.012 363.709 154.975C359.156 152.878 355.232 149.943 351.937 146.168C348.642 142.334 346.095 137.751 344.298 132.419C342.501 127.027 341.602 121.036 341.602 114.446C341.602 106.478 342.74 99.2887 345.017 92.8784C347.353 86.468 350.499 81.0162 354.453 76.523C358.467 71.9698 363.14 68.4651 368.472 66.0088C373.804 63.5525 379.525 62.3243 385.636 62.3243C387.433 62.3243 389.26 62.534 391.118 62.9534C393.035 63.3727 394.952 63.9419 396.869 64.6608C398.786 65.3797 400.643 66.2185 402.441 67.177C404.298 68.0757 406.035 69.0043 407.653 69.9628V44.8007C407.653 37.5516 407.473 31.2311 407.114 25.8392C406.814 20.3874 406.245 15.7743 405.406 12H432.815V108.155Z" fill="#004631"/>
<path d="M466.212 115.345C466.811 123.133 468.998 128.764 472.772 132.239C476.607 135.654 481.909 137.361 488.679 137.361C494.61 137.361 500.361 136.702 505.933 135.384C511.564 134.007 517.196 131.64 522.827 128.285L524.714 149.044C521.479 150.661 518.304 152.039 515.189 153.178C512.133 154.316 509.048 155.245 505.933 155.964C502.877 156.682 499.732 157.192 496.497 157.491C493.262 157.851 489.907 158.03 486.432 158.03C480.501 158.03 474.809 157.042 469.358 155.065C463.966 153.028 459.203 150.062 455.069 146.168C450.935 142.214 447.64 137.332 445.184 131.52C442.788 125.709 441.589 118.969 441.589 111.301C441.589 103.872 442.608 97.1619 444.645 91.1709C446.742 85.12 449.737 79.9678 453.631 75.7142C457.525 71.4007 462.228 68.1056 467.74 65.8291C473.252 63.4926 479.482 62.3243 486.432 62.3243C491.464 62.3243 495.868 62.9534 499.642 64.2115C503.476 65.4097 506.771 67.0872 509.527 69.2439C512.343 71.3408 514.679 73.857 516.537 76.7926C518.454 79.6682 519.951 82.8135 521.03 86.2284C522.168 89.5833 522.977 93.118 523.456 96.8324C523.936 100.547 524.175 104.261 524.175 107.976V109.593C524.175 110.252 524.175 110.941 524.175 111.66C524.235 112.379 524.265 113.068 524.265 113.727V115.345H466.212ZM485.174 81.1959C479.962 81.1959 475.828 82.6038 472.772 85.4196C469.777 88.1754 467.77 92.7586 466.751 99.1689H501.349C501.349 92.8185 499.972 88.2354 497.216 85.4196C494.52 82.6038 490.506 81.1959 485.174 81.1959Z" fill="#004631"/>
<path d="M532.5 155.784V54.2365C532.5 44.5311 532.44 36.0538 532.321 28.8047C532.201 21.4957 531.811 15.8941 531.152 12H557.662V97.8209L585.341 64.1216H619.04L576.085 104.291L621.736 155.784H588.756L557.662 112.649V155.784H532.5Z" fill="#004631"/>
<path d="M622.782 31.3209C622.782 29.0444 623.171 26.9475 623.95 25.0304C624.729 23.1133 625.808 21.4658 627.185 20.0878C628.623 18.65 630.301 17.5417 632.218 16.7628C634.135 15.984 636.232 15.5946 638.508 15.5946C640.785 15.5946 642.882 15.984 644.799 16.7628C646.716 17.5417 648.364 18.65 649.742 20.0878C651.179 21.4658 652.288 23.1133 653.067 25.0304C653.845 26.9475 654.235 29.0444 654.235 31.3209C654.235 33.6574 653.845 35.7842 653.067 37.7014C652.288 39.6185 651.179 41.2959 649.742 42.7338C648.364 44.1117 646.716 45.1901 644.799 45.9689C642.882 46.6878 640.785 47.0473 638.508 47.0473C636.232 47.0473 634.135 46.6878 632.218 45.9689C630.301 45.1901 628.623 44.1117 627.185 42.7338C625.808 41.2959 624.729 39.6185 623.95 37.7014C623.171 35.7842 622.782 33.6574 622.782 31.3209ZM651.09 64.1216V113.098C651.09 115.974 651.119 119.389 651.179 123.343C651.299 127.237 651.419 131.191 651.539 135.205C651.719 139.219 651.898 143.053 652.078 146.707C652.318 150.362 652.587 153.387 652.887 155.784H625.927V108.155C625.927 103.782 625.897 99.4685 625.837 95.2149C625.837 90.9613 625.778 86.9473 625.658 83.173C625.598 79.3387 625.478 75.8041 625.298 72.5689C625.119 69.2739 624.879 66.4581 624.579 64.1216H651.09Z" fill="#004631"/>
<path d="M167.271 40.2405C161.051 35.5221 147.815 26.9349 128.838 24.5393C123.503 23.8675 105.995 22.2084 86.5468 30.7065C77.858 34.5023 71.313 39.2208 66.8793 42.9842C63.3794 45.9545 52.7661 55.4805 45.4334 71.6593C42.9567 77.1304 41.4869 81.9541 40.6018 85.4262V0H0V158H41.0566C41.6006 149.453 42.7375 137.24 45.3279 122.672C47.9264 108.104 49.2987 100.642 53.1478 91.9738C56.4934 84.4307 62.7054 70.9147 77.452 60.3851C93.035 49.2566 108.983 48.0022 114.091 47.7836C118.419 47.5975 139.654 47.12 159.005 62.2466C169.431 70.3967 175.116 79.7932 177.958 85.4181C174.701 89.5619 168.148 96.7408 157.535 101.524C153.93 103.151 136.024 111.171 116.925 102.876C105.873 98.0762 99.5069 89.8857 96.5592 85.4181C101.586 83.1681 108.35 80.7401 116.592 79.3561C127.693 77.4946 137.137 78.2473 143.584 79.2995C138.59 76.402 129.317 71.9668 117.031 71.4164C95.4224 70.4371 80.2535 82.1726 76.2421 85.4909C79.4171 90.8083 85.3369 99.185 95.3168 106.591C103.941 112.984 112.28 116.206 117.891 117.881V158H157.543V117.905C162.756 116.408 170.974 113.34 179.322 106.833C189.107 99.2093 194.41 90.4927 197 85.4181C195.14 78.1907 188.53 56.3546 167.271 40.2405Z" fill="#004631"/>
</svg>
